<?xml version="1.0" standalone="no"?>
<!DOCTYPE svg PUBLIC "-//W3C//DTD SVG 20010904//EN"
 "http://www.w3.org/TR/2001/REC-SVG-20010904/DTD/svg10.dtd">
<svg version="1.0" xmlns="http://www.w3.org/2000/svg"
 width="256.000000pt" height="256.000000pt" viewBox="0 0 256.000000 256.000000"
 preserveAspectRatio="xMidYMid meet">
<metadata>
Created by potrace 1.11, written by Peter Selinger 2001-2013
</metadata>
<g transform="translate(0.000000,256.000000) scale(0.100000,-0.100000)"
fill="#000000" stroke="none">
<path d="M738 2530 c-194 -33 -396 -152 -526 -310 -63 -78 -144 -238 -167
-335 -36 -145 -25 -358 24 -490 51 -135 106 -221 205 -321 153 -152 322 -231
541 -250 33 -3 61 -7 62 -8 2 -1 8 -27 13 -57 10 -49 9 -56 -9 -70 -10 -9 -20
-24 -22 -35 -6 -46 35 -141 108 -252 l55 -83 -29 -32 c-15 -17 -46 -50 -68
-72 -110 -111 -127 -149 -83 -180 20 -13 79 -15 473 -14 545 1 586 6 769 102
409 216 571 723 365 1141 -95 192 -272 350 -473 423 -65 23 -74 23 -98 -2 -18
-20 -30 -23 -58 -19 -19 3 -44 7 -55 8 -17 2 -21 16 -32 100 -28 229 -133 421
-308 569 -81 68 -236 147 -340 173 -77 19 -271 26 -347 14z"/>
</g>
</svg>
